<svg width="186" height="62" viewBox="0 0 186 62" fill="none" xmlns="http://www.w3.org/2000/svg">
<g clip-path="url(#clip0_1_300)">
<path d="M176.327 0H9.67288C4.33069 0 0 4.33069 0 9.67288V51.7422C0 57.0844 4.33069 61.4151 9.67288 61.4151H176.327C181.669 61.4151 186 57.0844 186 51.7422V9.67288C186 4.33069 181.669 0 176.327 0Z" fill="white"/>
<path d="M56.3601 15.0343V23.6888H59.4848C62.0638 23.6888 63.5571 22.0995 63.5571 19.3346C63.5571 16.6117 62.0517 15.0343 59.4848 15.0343H56.3601ZM57.7035 16.2579H59.3348C61.1281 16.2579 62.1897 17.3974 62.1897 19.3526C62.1897 21.3378 61.1461 22.4654 59.3348 22.4654H57.7035V16.2579Z" fill="black"/>
<path d="M67.9773 23.8147C69.8845 23.8147 71.054 22.5372 71.054 20.4201C71.054 18.3149 69.8785 17.0314 67.9773 17.0314C66.0701 17.0314 64.8945 18.3149 64.8945 20.4201C64.8945 22.5372 66.064 23.8147 67.9773 23.8147ZM67.9773 22.6692C66.8558 22.6692 66.226 21.8475 66.226 20.4201C66.226 19.0046 66.8558 18.177 67.9773 18.177C69.0928 18.177 69.7286 19.0046 69.7286 20.4201C69.7286 21.8415 69.0928 22.6692 67.9773 22.6692Z" fill="black"/>
<path d="M80.86 17.1574H79.5706L78.407 22.1413H78.3051L76.9616 17.1574H75.7261L74.3827 22.1413H74.2867L73.1172 17.1574H71.8097L73.6089 23.6887H74.9344L76.2779 18.8787H76.3798L77.7293 23.6887H79.0667L80.86 17.1574Z" fill="black"/>
<path d="M82.1915 23.6887H83.481V19.8683C83.481 18.8487 84.0867 18.213 85.0403 18.213C85.9939 18.213 86.4498 18.7347 86.4498 19.7843V23.6887H87.7393V19.4605C87.7393 17.9071 86.9356 17.0314 85.4782 17.0314C84.4946 17.0314 83.8468 17.4692 83.529 18.195H83.433V17.1574H82.1915V23.6887Z" fill="black"/>
<path d="M89.6169 23.6888H90.9058V14.6085H89.6169V23.6888Z" fill="black"/>
<path d="M95.6022 23.8147C97.5096 23.8147 98.6791 22.5372 98.6791 20.4201C98.6791 18.3149 97.5034 17.0314 95.6022 17.0314C93.6948 17.0314 92.5192 18.3149 92.5192 20.4201C92.5192 22.5372 93.6887 23.8147 95.6022 23.8147ZM95.6022 22.6692C94.4809 22.6692 93.851 21.8475 93.851 20.4201C93.851 19.0046 94.4809 18.177 95.6022 18.177C96.7173 18.177 97.3534 19.0046 97.3534 20.4201C97.3534 21.8415 96.7173 22.6692 95.6022 22.6692Z" fill="black"/>
<path d="M102.368 22.7111C101.666 22.7111 101.156 22.3693 101.156 21.7815C101.156 21.2057 101.564 20.8999 102.463 20.8399L104.058 20.7379V21.2837C104.058 22.0934 103.339 22.7111 102.368 22.7111ZM102.038 23.7967C102.895 23.7967 103.609 23.4248 103.999 22.7711H104.1V23.6887H105.342V19.2266C105.342 17.8471 104.419 17.0314 102.781 17.0314C101.3 17.0314 100.244 17.7511 100.112 18.8727H101.359C101.503 18.4109 102.002 18.147 102.721 18.147C103.603 18.147 104.058 18.5368 104.058 19.2266V19.7903L102.289 19.8923C100.736 19.9882 99.86 20.666 99.86 21.8415C99.86 23.035 100.778 23.7967 102.038 23.7967Z" fill="black"/>
<path d="M109.565 23.7967C110.464 23.7967 111.225 23.371 111.616 22.6572H111.718V23.6888H112.953V14.6085H111.663V18.1951H111.568C111.214 17.4754 110.458 17.0495 109.565 17.0495C107.915 17.0495 106.854 18.357 106.854 20.4201C106.854 22.4893 107.903 23.7967 109.565 23.7967ZM109.93 18.2071C111.01 18.2071 111.688 19.0647 111.688 20.4261C111.688 21.7936 111.016 22.6393 109.93 22.6393C108.839 22.6393 108.185 21.8056 108.185 20.4201C108.185 19.0467 108.845 18.2071 109.93 18.2071Z" fill="black"/>
<path d="M121.008 23.8147C122.915 23.8147 124.085 22.5372 124.085 20.4201C124.085 18.3149 122.909 17.0314 121.008 17.0314C119.1 17.0314 117.925 18.3149 117.925 20.4201C117.925 22.5372 119.094 23.8147 121.008 23.8147ZM121.008 22.6692C119.887 22.6692 119.257 21.8475 119.257 20.4201C119.257 19.0046 119.887 18.177 121.008 18.177C122.123 18.177 122.759 19.0046 122.759 20.4201C122.759 21.8415 122.123 22.6692 121.008 22.6692Z" fill="black"/>
<path d="M125.638 23.6887H126.927V19.8683C126.927 18.8487 127.533 18.213 128.487 18.213C129.44 18.213 129.896 18.7347 129.896 19.7843V23.6887H131.185V19.4605C131.185 17.9071 130.382 17.0314 128.924 17.0314C127.941 17.0314 127.293 17.4692 126.976 18.195H126.879V17.1574H125.638V23.6887Z" fill="black"/>
<path d="M136.817 15.5321V17.1874H135.78V18.273H136.817V21.9615C136.817 23.221 137.387 23.7248 138.821 23.7248C139.073 23.7248 139.312 23.6948 139.522 23.6588V22.5853C139.342 22.6033 139.228 22.6153 139.031 22.6153C138.388 22.6153 138.107 22.3154 138.107 21.6317V18.273H139.522V17.1874H138.107V15.5321H136.817Z" fill="black"/>
<path d="M141.099 23.6888H142.389V19.8743C142.389 18.8848 142.977 18.219 144.032 18.219C144.944 18.219 145.43 18.7469 145.43 19.7904V23.6888H146.72V19.4725C146.72 17.9192 145.862 17.0375 144.47 17.0375C143.487 17.0375 142.797 17.4754 142.48 18.2071H142.377V14.6085H141.099V23.6888Z" fill="black"/>
<path d="M151.217 18.129C152.171 18.129 152.795 18.7948 152.825 19.8203H149.526C149.598 18.8007 150.264 18.129 151.217 18.129ZM152.819 21.9254C152.579 22.4353 152.045 22.7172 151.265 22.7172C150.234 22.7172 149.569 21.9914 149.526 20.8459V20.7739H154.139V20.3241C154.139 18.2729 153.041 17.0314 151.223 17.0314C149.383 17.0314 148.213 18.357 148.213 20.4441C148.213 22.5312 149.358 23.8147 151.229 23.8147C152.723 23.8147 153.767 23.095 154.061 21.9254H152.819Z" fill="black"/>
<path d="M67.4274 48.2549H70.3058L63.9782 30.7296H61.0391L54.7115 48.2549H57.5413L59.1445 43.5183H65.8242L67.4274 48.2549ZM62.4479 33.6444H62.5208L65.132 41.3322H59.8367L62.4479 33.6444Z" fill="black"/>
<path d="M79.2684 34.9316C77.4344 34.9316 75.807 35.8304 75.0662 37.2513H75.0054V35.0652H72.4672V52.627H75.1026V46.0929H75.1512C75.9406 47.5503 77.4344 48.3883 79.3291 48.3883C82.6447 48.3883 84.8429 45.7407 84.8429 41.66C84.8429 37.5671 82.6326 34.9316 79.2684 34.9316ZM78.6004 46.1536C76.4993 46.1536 75.0905 44.3562 75.0783 41.66C75.0905 38.9759 76.5114 37.1663 78.6004 37.1663C80.7379 37.1663 82.1467 38.9395 82.1467 41.66C82.1467 44.3926 80.7379 46.1536 78.6004 46.1536Z" fill="black"/>
<path d="M94.2423 34.9316C92.4086 34.9316 90.7811 35.8304 90.0406 37.2513H89.9801V35.0652H87.4414V52.627H90.0766V46.0929H90.1257C90.9153 47.5503 92.4086 48.3883 94.3037 48.3883C97.6192 48.3883 99.817 45.7407 99.817 41.66C99.817 37.5671 97.607 34.9316 94.2423 34.9316ZM93.5746 46.1536C91.4733 46.1536 90.0652 44.3562 90.0529 41.66C90.0652 38.9759 91.4856 37.1663 93.5746 37.1663C95.7119 37.1663 97.1209 38.9395 97.1209 41.66C97.1209 44.3926 95.7119 46.1536 93.5746 46.1536Z" fill="black"/>
<path d="M108.136 43.3725C108.305 46.5424 110.929 48.5463 114.816 48.5463C118.969 48.5463 121.58 46.4938 121.58 43.2147C121.58 40.652 120.087 39.2068 116.491 38.3567L114.56 37.883C112.302 37.3243 111.379 36.5956 111.379 35.3568C111.379 33.8022 112.824 32.7335 114.937 32.7335C117.05 32.7335 118.495 33.7901 118.653 35.5389H121.301C121.216 32.5149 118.678 30.4381 114.973 30.4381C111.232 30.4381 108.598 32.5149 108.598 35.5389C108.598 37.9801 110.091 39.4861 113.31 40.2634L115.581 40.8099C117.852 41.3686 118.811 42.1823 118.811 43.5426C118.811 45.1093 117.22 46.251 115.01 46.251C112.702 46.251 111.014 45.1092 110.82 43.3725H108.136Z" fill="black"/>
<path d="M125.041 32.102V35.0655H123.22V37.1423H125.041V44.7815C125.041 47.332 126.061 48.34 128.697 48.34C129.267 48.34 129.887 48.2793 130.179 48.2064V46.1296C130.009 46.1539 129.56 46.1903 129.28 46.1903C128.175 46.1903 127.664 45.656 127.664 44.5143V37.1423H130.19V35.0655H127.664V32.102H125.041Z" fill="black"/>
<path d="M138.243 48.4128C142.056 48.4128 144.473 45.8137 144.473 41.6601C144.473 37.5065 142.043 34.8953 138.243 34.8953C134.441 34.8953 131.999 37.5186 131.999 41.6601C131.999 45.8137 134.429 48.4128 138.243 48.4128ZM138.243 46.2267C136.008 46.2267 134.672 44.5385 134.672 41.6601C134.672 38.7939 136.008 37.0815 138.243 37.0815C140.477 37.0815 141.801 38.7818 141.801 41.6601C141.801 44.5385 140.477 46.2267 138.243 46.2267Z" fill="black"/>
<path d="M147.084 48.2547H149.72V40.3847C149.72 38.5266 150.812 37.3242 152.549 37.3242C153.071 37.3242 153.533 37.3971 153.751 37.4821V35.0166C153.545 34.968 153.217 34.9316 152.828 34.9316C151.273 34.9316 150.059 35.8182 149.646 37.2877H149.598V35.0652H147.084V48.2547Z" fill="black"/>
<path d="M160.868 37.045C162.787 37.045 164.086 38.4052 164.147 40.4578H157.455C157.601 38.4295 158.973 37.045 160.868 37.045ZM164.135 44.3927C163.77 45.5466 162.568 46.2752 161.037 46.2752C158.876 46.2752 157.443 44.7692 157.443 42.486V42.3281H166.782V41.4051C166.782 37.4093 164.499 34.8953 160.88 34.8953C157.188 34.8953 154.783 37.5794 154.783 41.7087C154.783 45.838 157.164 48.4128 160.989 48.4128C163.953 48.4128 166.273 46.7611 166.649 44.3927H164.135Z" fill="black"/>
<path d="M39.4166 31.2638C39.377 26.9632 43.0127 24.8709 43.1789 24.7735C41.1199 21.8339 37.9285 21.4323 36.8069 21.4003C34.1264 21.1241 31.5265 22.9708 30.161 22.9708C28.7683 22.9708 26.6656 21.4269 24.3994 21.4723C21.4833 21.5163 18.7551 23.1696 17.2589 25.7369C14.1709 30.9715 16.4739 38.6641 19.4323 42.8954C20.9123 44.9676 22.6415 47.2814 24.905 47.2C27.1194 47.1106 27.9466 45.8176 30.6188 45.8176C33.2666 45.8176 34.0433 47.2 36.3518 47.148C38.7284 47.1106 40.2246 45.0664 41.6528 42.9755C43.3629 40.6003 44.0497 38.2612 44.077 38.1411C44.0211 38.1224 39.4615 36.4184 39.4166 31.2638Z" fill="black"/>
<path d="M35.0557 18.6164C36.2467 17.1579 37.0616 15.1737 36.8354 13.1602C35.1116 13.2349 32.9558 14.3278 31.7144 15.7542C30.616 17.0112 29.6349 19.0714 29.8883 21.0088C31.8248 21.1503 33.8129 20.0521 35.0557 18.6164Z" fill="black"/>
</g>
<defs>
<clipPath id="clip0_1_300">
<rect width="185.358" height="61.2031" fill="white" transform="scale(1.00346)"/>
</clipPath>
</defs>
</svg>
