<svg width="186" height="62" viewBox="0 0 186 62" fill="none" xmlns="http://www.w3.org/2000/svg">
<g clip-path="url(#clip0_1_285)">
<path d="M176.327 0H9.67288C4.3307 0 0 4.3307 0 9.67288V51.7422C0 57.0844 4.3307 61.4151 9.67288 61.4151H176.327C181.669 61.4151 186 57.0844 186 51.7422V9.67288C186 4.3307 181.669 0 176.327 0Z" fill="white"/>
<path d="M17.2236 49.2114L30.2955 35.6327L17.2346 22.0782C16.8858 22.2892 16.6698 22.7778 16.6698 23.4174V47.8852C16.6745 48.5248 16.8826 48.9777 17.2236 49.2114Z" fill="black"/>
<path d="M30.7642 35.2581L34.6579 31.2129L18.8015 22.1808C18.5345 22.0197 18.2312 21.9345 17.9223 21.9341L30.7626 35.2565L30.7642 35.2581Z" fill="black"/>
<path d="M30.7637 36.0091L17.8828 49.3898C18.2061 49.3955 18.5245 49.3078 18.8026 49.1366L34.6902 40.0803L30.7637 36.0091Z" fill="black"/>
<path d="M40.4007 34.49L35.1241 31.4788L31.124 35.6345L35.1538 39.8161L40.3991 36.8129C41.5145 36.175 41.5145 35.1247 40.4007 34.49Z" fill="black"/>
<path d="M86.7054 31.9892C83.4483 31.9892 80.7876 34.4754 80.7876 37.9057C80.7876 41.3082 83.4483 43.8205 86.7054 43.8205C89.9697 43.8205 92.6298 41.3082 92.6298 37.9057C92.6298 34.4754 89.9697 31.9892 86.7054 31.9892ZM86.7054 41.4907C84.9183 41.4907 83.3807 40.0111 83.3807 37.9057C83.3807 35.7724 84.9183 34.3189 86.7054 34.3189C88.4922 34.3189 90.0372 35.7724 90.0372 37.9057C90.0372 40.0111 88.4922 41.4907 86.7054 41.4907ZM73.7933 31.9892C70.5292 31.9892 67.8754 34.4754 67.8754 37.9057C67.8754 41.3082 70.5292 43.8205 73.7933 43.8205C77.0556 43.8205 79.7111 41.3082 79.7111 37.9057C79.7111 34.4754 77.0556 31.9892 73.7933 31.9892ZM73.7933 41.4907C72.0044 41.4907 70.4617 40.0111 70.4617 37.9057C70.4617 35.7724 72.0044 34.3189 73.7933 34.3189C75.5804 34.3189 77.1179 35.7724 77.1179 37.9057C77.1179 40.0111 75.5804 41.4907 73.7933 41.4907ZM58.4284 33.8026V36.3166H64.4139C64.2387 37.7214 63.7707 38.7541 63.0531 39.4739C62.1795 40.3432 60.8187 41.3082 58.4284 41.3082C54.7449 41.3082 51.8605 38.3264 51.8605 34.6319C51.8605 30.9373 54.7449 27.9556 58.4284 27.9556C60.42 27.9556 61.8692 28.7362 62.9387 29.7481L64.7051 27.9764C63.2091 26.5439 61.2191 25.4433 58.4284 25.4433C53.3772 25.4433 49.1321 29.5656 49.1321 34.6319C49.1321 39.6983 53.3772 43.8205 58.4284 43.8205C61.1585 43.8205 63.2091 42.9233 64.8211 41.2404C66.4731 39.5834 66.9879 37.2537 66.9879 35.3725C66.9879 34.7884 66.9408 34.2511 66.8525 33.8026H58.4284ZM121.257 35.7516C120.77 34.4284 119.267 31.9892 116.206 31.9892C113.173 31.9892 110.647 34.3867 110.647 37.9057C110.647 41.2195 113.147 43.8205 116.497 43.8205C119.207 43.8205 120.77 42.1636 121.413 41.1986L119.402 39.8547C118.732 40.8387 117.818 41.4907 116.497 41.4907C115.185 41.4907 114.244 40.8874 113.641 39.6983L121.529 36.4244L121.257 35.7516ZM113.214 37.7214C113.147 35.4404 114.981 34.272 116.295 34.272C117.324 34.272 118.198 34.7882 118.489 35.5273L113.214 37.7214ZM106.803 43.4606H109.395V26.0744H106.803V43.4606ZM102.555 33.3071H102.469C101.887 32.6151 100.775 31.9892 99.3679 31.9892C96.4139 31.9892 93.7134 34.5901 93.7134 37.9248C93.7134 41.2404 96.4139 43.8205 99.3679 43.8205C100.775 43.8205 101.887 43.1894 102.469 42.4765H102.555V43.3249C102.555 45.5869 101.351 46.8022 99.4074 46.8022C97.8238 46.8022 96.8403 45.6547 96.4349 44.6898L94.1801 45.6339C94.8302 47.2021 96.5507 49.132 99.4074 49.132C102.448 49.132 105.014 47.3377 105.014 42.972V32.3491H102.555V33.3071ZM99.5899 41.4907C97.8027 41.4907 96.3068 39.9903 96.3068 37.9248C96.3068 35.8402 97.8027 34.3189 99.5899 34.3189C101.351 34.3189 102.74 35.8402 102.74 37.9248C102.74 39.9903 101.351 41.4907 99.5899 41.4907ZM133.398 26.0744H127.196V43.4606H129.782V36.873H133.398C136.271 36.873 139.087 34.7884 139.087 31.4728C139.087 28.159 136.264 26.0744 133.398 26.0744ZM133.466 34.4546H129.782V28.4928H133.466C135.397 28.4928 136.499 30.101 136.499 31.4728C136.499 32.8185 135.397 34.4546 133.466 34.4546ZM149.453 31.9561C147.584 31.9561 145.641 32.7837 144.841 34.618L147.137 35.5829C147.631 34.618 148.54 34.3051 149.499 34.3051C150.841 34.3051 152.202 35.1135 152.223 36.5408V36.7234C151.755 36.4523 150.753 36.0506 149.52 36.0506C147.049 36.0506 144.53 37.4154 144.53 39.9624C144.53 42.2922 146.554 43.7926 148.831 43.7926C150.571 43.7926 151.531 43.005 152.134 42.0888H152.223V43.4327H154.721V36.7634C154.721 33.6808 152.425 31.9561 149.453 31.9561ZM149.141 41.4838C148.295 41.4838 147.116 41.063 147.116 40.0112C147.116 38.6655 148.586 38.1491 149.858 38.1491C150.997 38.1491 151.531 38.4012 152.223 38.7333C152.02 40.3432 150.638 41.4838 149.141 41.4838ZM163.82 32.3369L160.848 39.8738H160.759L157.686 32.3369H154.897L159.515 42.8695L156.881 48.7303H159.583L166.698 32.3369H163.82ZM140.508 43.4606H143.102V26.0744H140.508V43.4606Z" fill="black"/>
<path d="M53.224 20.334C52.5613 20.334 51.9501 20.1796 51.3903 19.8708C50.837 19.5555 50.3963 19.1245 50.0682 18.5775C49.74 18.0243 49.576 17.4066 49.576 16.7245C49.576 16.0426 49.74 15.4282 50.0682 14.8812C50.3963 14.328 50.837 13.8968 51.3903 13.588C51.9501 13.2728 52.5613 13.1151 53.224 13.1151C53.7645 13.1151 54.2567 13.2116 54.7006 13.4046C55.151 13.5912 55.537 13.8582 55.8587 14.2057L54.9612 15.0839C54.7296 14.8395 54.4722 14.6561 54.1891 14.5338C53.9124 14.4116 53.5875 14.3504 53.2144 14.3504C52.7897 14.3504 52.4005 14.4502 52.0466 14.6496C51.6927 14.8426 51.4097 15.1225 51.1973 15.4892C50.9914 15.8496 50.8885 16.2613 50.8885 16.7245C50.8885 17.1878 50.9947 17.6028 51.207 17.9695C51.4193 18.3299 51.7023 18.6097 52.0563 18.8092C52.4165 19.0022 52.809 19.0987 53.2337 19.0987C53.877 19.0987 54.4046 18.9089 54.8164 18.5293C54.9451 18.4135 55.0577 18.2655 55.1542 18.0853C55.2507 17.9052 55.3214 17.7089 55.3665 17.4966H53.1951V16.3868H56.5826C56.6276 16.567 56.6501 16.7696 56.6501 16.9948C56.6501 17.4516 56.5793 17.8763 56.4378 18.2687C56.3027 18.6612 56.0935 19.0054 55.8105 19.3014C55.5017 19.636 55.1284 19.8933 54.691 20.0734C54.2534 20.2471 53.7645 20.334 53.224 20.334Z" fill="black"/>
<path d="M58.0897 13.2694H62.4713V14.5048H59.3925V16.1068H62.1624V17.3421H59.3925V18.9442H62.4713V20.1795H58.0897V13.2694Z" fill="black"/>
<path d="M65.403 14.5048H63.4728V13.2694H68.6361V14.5048H66.7059V20.1795H65.403V14.5048Z" fill="black"/>
<path d="M72.3253 13.2694H73.6281V20.1795H72.3253V13.2694Z" fill="black"/>
<path d="M76.7922 14.5048H74.862V13.2694H80.0252V14.5048H78.095V20.1795H76.7922V14.5048Z" fill="black"/>
<path d="M86.788 20.334C86.1124 20.334 85.498 20.1764 84.9447 19.8611C84.3978 19.5395 83.9667 19.1019 83.6514 18.5486C83.3362 17.9953 83.1785 17.3873 83.1785 16.7245C83.1785 16.0619 83.3362 15.4539 83.6514 14.9005C83.9667 14.3473 84.3978 13.913 84.9447 13.5976C85.498 13.276 86.1124 13.1151 86.788 13.1151C87.4636 13.1151 88.0745 13.276 88.622 13.5976C89.1748 13.913 89.609 14.3473 89.9249 14.9005C90.2399 15.4539 90.3978 16.0619 90.3978 16.7245C90.3978 17.3873 90.2399 17.9953 89.9249 18.5486C89.609 19.1019 89.1748 19.5395 88.622 19.8611C88.0745 20.1764 87.4636 20.334 86.788 20.334ZM86.788 19.0987C87.2126 19.0987 87.6019 18.999 87.9561 18.7995C88.3097 18.6001 88.586 18.3202 88.7861 17.9599C88.9914 17.5996 89.0949 17.1878 89.0949 16.7245C89.0949 16.2613 88.9914 15.8496 88.7861 15.4892C88.586 15.129 88.3097 14.8491 87.9561 14.6496C87.6019 14.4502 87.2126 14.3504 86.788 14.3504C86.3633 14.3504 85.9741 14.4502 85.6202 14.6496C85.2728 14.8491 84.9962 15.129 84.7902 15.4892C84.5908 15.8496 84.4911 16.2613 84.4911 16.7245C84.4911 17.1878 84.5908 17.5996 84.7902 17.9599C84.9962 18.3202 85.2728 18.6001 85.6202 18.7995C85.9741 18.999 86.3633 19.0987 86.788 19.0987Z" fill="black"/>
<path d="M91.8244 13.2694H93.3396L96.1191 17.9019H96.1963L96.1191 16.5701V13.2694H97.4123V20.1795H96.0419L93.108 15.2865H93.0308L93.108 16.6183V20.1795H91.8244V13.2694Z" fill="black"/>
</g>
<defs>
<clipPath id="clip0_1_285">
<rect width="185.358" height="61.2031" fill="white" transform="scale(1.00346)"/>
</clipPath>
</defs>
</svg>
