<svg width="147" height="47" viewBox="0 0 147 47" fill="none" xmlns="http://www.w3.org/2000/svg">
<g clip-path="url(#clip0_1_50)">
<path fill-rule="evenodd" clip-rule="evenodd" d="M11.3946 45.6699H14.8142V27.4019H11.3946V45.6699ZM23.9296 45.3959H26.9923V33.8699L39.8841 45.6699V27.676H36.8299V39.0049L23.9296 27.4019V45.3959ZM46.8759 40.9716C48.5428 42.2704 50.5437 43.0211 52.6888 43.0211C54.7781 43.0211 56.2439 42.3018 56.2439 40.7133C56.2439 39.3289 55.3092 38.7867 53.6721 38.18L51.0219 37.2596C48.5786 36.3918 46.7203 35.1244 46.7203 32.2115C46.7203 29.096 49.5333 27.4019 52.8971 27.4019C54.9581 27.4019 56.8361 27.92 58.3033 28.8377V31.9276C56.7776 30.8 55.1079 30.0236 52.9628 30.0236C51.116 30.0236 49.7359 30.713 49.7359 32.1502C49.7359 33.4489 50.6022 33.9684 52.1279 34.4907L55.0808 35.5269C57.9423 36.533 59.2553 38.0929 59.2553 40.6591C59.2553 43.8874 56.4152 45.6699 52.6888 45.6699C50.2398 45.6699 48.1575 44.9848 46.8759 44.1199V40.9716ZM67.2333 45.6699H70.6513V27.4019H67.2333V45.6699ZM86.6872 42.9055C90.5405 42.9055 92.6 40.4336 92.6 36.5316C92.6 32.6012 90.5391 30.1378 86.6872 30.1378H82.8766V42.9055H86.6872ZM79.7653 27.4019H86.8014C92.2175 27.4019 95.7199 30.9699 95.7199 36.5316C95.7199 42.0977 92.2175 45.6699 86.8014 45.6699H79.7653V27.4019ZM112.815 27.4019V30.1378H104.541V34.5335H111.961V37.2381H104.54V42.9055H112.815V45.6699H101.419V27.4019H112.815ZM124.949 35.6739H128.341C130.349 35.6739 131.481 34.5721 131.481 32.8781C131.481 31.1839 130.349 30.0807 128.341 30.0807H124.949V35.6753V35.6739ZM124.949 38.2572V45.6699H121.93V27.4019H128.398C132.086 27.4019 134.472 29.3015 134.472 32.8781C134.472 35.9366 133.148 37.6933 130.326 38.1444L136.744 45.6699H133.31L127.096 38.2586H124.95L124.949 38.2572ZM10.2001 9.40514C11.5374 8.91562 12.5792 7.44705 12.5792 5.42758C12.5792 2.06228 10.2001 0.318262 6.39379 0.318262H0V19.1043H6.98749C10.7938 19.1043 13.1729 17.2376 13.1729 13.7195C13.1729 11.73 11.9241 9.98601 10.2001 9.40514ZM3.0028 8.21201V3.07272H6.36524C8.47748 3.07272 9.60638 3.8377 9.60638 5.61168C9.60638 7.38568 8.47605 8.21201 6.36524 8.21201H3.0028ZM3.0028 10.8438H6.92756C9.01124 10.8438 10.1401 11.8827 10.1401 13.5968C10.1401 15.2794 9.00981 16.3512 6.92899 16.3512H3.00423V10.8423L3.0028 10.8438ZM27.1236 19.4097C31.4952 19.4097 34.4394 16.7779 34.4394 11.6387V0.318262H31.3466V11.2705C31.3466 14.8812 29.8595 16.5653 27.1236 16.5653C24.3877 16.5653 22.902 14.8812 22.902 11.2705V0.318262H19.8094V11.6073C19.8094 16.7779 22.7822 19.4097 27.1236 19.4097ZM41.7209 17.757C42.9996 18.6761 45.0819 19.4097 47.5196 19.4097C51.2374 19.4097 54.0618 17.5115 54.0618 14.0863C54.0618 11.3632 52.7545 9.71057 49.8986 8.64018L46.9558 7.53839C45.4387 6.98892 44.5766 6.43803 44.5766 5.0608C44.5766 3.53086 45.9439 2.79728 47.7879 2.79728C49.9287 2.79728 51.5942 3.62219 53.1112 4.81675V1.54137C51.6541 0.563738 49.7801 0.0128447 47.7279 0.0128447C44.3683 0.0128447 41.5724 1.81823 41.5724 5.12216C41.5724 8.21201 43.4165 9.55786 45.854 10.4755L48.5014 11.4546C50.137 12.0968 51.0589 12.6791 51.0589 14.1476C51.0589 15.8303 49.6018 16.5953 47.5196 16.5953C45.3788 16.5953 43.3863 15.799 41.7209 14.4231V17.757ZM65.1124 0.318262H62.0211V19.1029H65.1124V0.318262ZM73.9353 19.08H76.9152V6.85905L89.4574 19.3712V0.289719H86.4859V12.3023L73.9353 0V19.08ZM108.783 0.322543V3.13552H100.754V7.65685H107.954V10.4384H100.754V16.2657H108.783V19.1086H97.7222V0.322543H108.783ZM115.983 17.7442C117.262 18.6633 119.343 19.3969 121.782 19.3969C125.498 19.3969 128.324 17.5001 128.324 14.0735C128.324 11.3504 127.015 9.69914 124.161 8.62733L121.216 7.52697C119.699 6.97608 118.837 6.42519 118.837 5.04795C118.837 3.51801 120.205 2.78443 122.049 2.78443C124.189 2.78443 125.855 3.61077 127.372 4.8039V1.52994C125.915 0.550894 124.041 0 121.989 0C118.629 0 115.833 1.80539 115.833 5.10932C115.833 8.19918 117.677 9.54501 120.115 10.4627L122.762 11.4417C124.398 12.084 125.32 12.6663 125.32 14.1349C125.32 15.8175 123.864 16.5824 121.78 16.5824C119.639 16.5824 117.647 15.7875 115.983 14.4102V17.7442ZM134.659 17.7442C135.938 18.6633 138.02 19.3969 140.458 19.3969C144.176 19.3969 147 17.5001 147 14.0735C147 11.3504 145.691 9.69914 142.837 8.62733L139.893 7.52697C138.377 6.97608 137.514 6.42519 137.514 5.04795C137.514 3.51801 138.882 2.78443 140.725 2.78443C142.866 2.78443 144.532 3.61077 146.049 4.8039V1.52994C144.593 0.550894 142.719 0 140.666 0C137.305 0 134.511 1.80539 134.511 5.10932C134.511 8.19918 136.355 9.54501 138.792 10.4627L141.439 11.4417C143.075 12.084 143.998 12.6663 143.998 14.1349C143.998 15.8175 142.541 16.5824 140.458 16.5824C138.317 16.5824 136.325 15.7875 134.659 14.4102V17.7442Z" fill="white"/>
</g>
<defs>
<clipPath id="clip0_1_50">
<rect width="146.047" height="46.3418" fill="white" transform="scale(1.00653)"/>
</clipPath>
</defs>
</svg>
