<svg width="124" height="47" viewBox="0 0 124 47" fill="none" xmlns="http://www.w3.org/2000/svg">
<g clip-path="url(#clip0_1_36)">
<path fill-rule="evenodd" clip-rule="evenodd" d="M44.2407 13.661V27.3221H47.8136H51.1763V22.0678C51.1763 18.6 51.1763 16.7085 51.1763 16.4983C51.2813 15.9729 51.3864 15.4475 51.7017 15.0271C52.1221 14.2915 52.8576 13.9763 53.6983 14.0813C54.8542 14.1864 55.5898 14.817 55.8 16.183C55.8 16.3933 55.8 18.4949 55.8 21.8576V27.217H59.1627H62.5254V20.9118C62.5254 15.5525 62.5254 14.5017 62.4203 13.9763C62.2102 12.0848 61.5797 10.6136 60.4237 9.56271C59.4779 8.61695 58.3221 8.09152 56.956 7.88136C56.4305 7.77627 54.9594 7.88136 54.539 7.98643C53.2779 8.3017 52.3322 8.72203 51.4915 9.66779L50.9661 10.0881V5.04407V0H47.6034H44.2407V13.661ZM115.909 0.210171C115.698 0.630509 108.868 17.1288 108.868 17.1288C108.868 17.1288 110.654 17.1288 112.861 17.1288H116.854L120.427 8.61695C122.424 3.88814 124 0 124 0C124 0 122.213 0 120.007 0H116.013L115.909 0.210171ZM29.739 7.98643C28.2678 8.19661 27.1118 8.61695 25.956 9.35254C23.644 10.8237 22.1729 13.3458 21.7525 16.2882C21.5424 17.6542 21.6475 19.3355 21.9627 20.5966C22.8034 23.8542 25.0102 26.3763 27.8475 27.3221C28.8983 27.6373 29.3187 27.7424 30.5797 27.7424C31.5254 27.7424 31.8407 27.7424 32.156 27.6373C33.5221 27.3221 34.4678 26.7966 35.3085 25.956L35.7288 25.5355V26.3763V27.217H38.9864H42.244V17.7594V8.3017H38.9864H35.7288V9.14237V9.98306L35.4136 9.66779C34.6779 8.82712 33.6271 8.3017 32.261 7.98643C31.8407 7.88136 31.6305 7.88136 30.7898 7.88136C30.2645 7.98645 29.844 7.98643 29.739 7.98643ZM72.6136 7.98643C70.8271 8.19661 68.9355 9.03728 67.5695 10.0881C64.9424 12.2949 63.5763 15.7627 64.1017 19.3355C64.6271 23.3288 67.4645 26.3763 71.4576 27.4271C72.2983 27.6373 73.139 27.7424 74.1898 27.7424C76.0813 27.7424 77.4475 27.4272 78.9187 26.6915C81.861 25.2203 83.7525 22.5933 84.1728 19.3355C84.2779 18.4949 84.2779 17.1288 84.1728 16.3933C83.9627 14.817 83.3322 13.2407 82.3864 11.9797C81.9661 11.4542 81.1254 10.5085 80.6 10.0881C79.1288 8.93221 77.4475 8.19661 75.556 7.98643C74.8203 7.88136 73.3491 7.88136 72.6136 7.98643ZM94.0509 7.98643C92.2645 8.19661 90.4779 8.93221 89.1119 10.0881C88.5864 10.5085 87.6407 11.4542 87.3254 11.9797C86.3797 13.2407 85.8542 14.817 85.539 16.3933C85.4339 17.1288 85.4339 18.6 85.539 19.3355C86.1695 23.539 89.217 26.7966 93.4203 27.6373C94.261 27.8475 94.6813 27.8475 95.6271 27.8475C97.4136 27.8475 98.9898 27.5322 100.461 26.6915C104.349 24.6949 106.451 20.2813 105.505 15.7627C104.664 11.5593 101.302 8.51186 96.9933 7.98643C96.2576 7.88136 94.7864 7.88136 94.0509 7.98643ZM0 8.40678C0 8.40678 1.78643 12.7152 3.99322 17.9695C6.2 23.2237 7.98645 27.5322 7.98645 27.5322C7.98645 27.5322 7.35593 29.1085 6.51525 31C5.67458 32.8915 5.04407 34.3627 5.04407 34.4678C5.04407 34.5729 6.62034 34.4678 8.61695 34.4678H12.1898L17.5491 21.5424C20.4915 14.3966 22.9085 8.61695 22.9085 8.51186C22.9085 8.51186 22.1729 8.40678 19.3355 8.51186H15.7627L13.556 13.9763C12.6102 16.9187 11.6645 19.4407 11.6645 19.4407C11.6645 19.4407 10.7186 16.9187 9.45763 13.9763L7.35593 8.51186H3.67797C1.68136 8.40678 0 8.40678 0 8.40678ZM32.9966 14.0813C34.3627 14.3966 35.4136 15.4475 35.8339 16.8136C35.939 17.339 35.939 18.2848 35.8339 18.8102C35.5187 20.1763 34.4678 21.2271 33.1017 21.5424C32.5763 21.6475 31.6305 21.6475 31.1051 21.5424C29.9491 21.2271 28.8983 20.3864 28.4779 19.3355C27.9525 18.1797 28.1627 16.7085 28.7933 15.6576C29.739 14.2915 31.3152 13.7661 32.9966 14.0813ZM74.9254 14.1864C76.3966 14.3966 77.5525 15.5525 77.8678 17.0237C77.9728 17.5491 77.9728 18.3898 77.8678 18.9152C77.5525 20.2813 76.5017 21.2271 75.2407 21.6475C74.8203 21.7525 73.6645 21.7525 73.244 21.6475C72.1933 21.3322 71.3525 20.5966 70.8271 19.6509C70.5118 19.0203 70.5118 18.7051 70.5118 17.9695C70.5118 17.339 70.617 17.0237 70.8271 16.4983C71.1424 15.8678 71.5627 15.2373 72.1933 14.817C72.8237 14.1864 73.8746 13.9763 74.9254 14.1864ZM96.2576 14.1864C97.5186 14.3966 98.5695 15.2373 98.9898 16.3933C99.2 16.9187 99.3051 17.2339 99.3051 17.8645C99.3051 18.6 99.2 18.9152 98.9898 19.5458C98.5695 20.4915 97.6237 21.2271 96.5729 21.5424C96.1525 21.6475 94.9966 21.6475 94.5763 21.5424C93.3152 21.2271 92.2645 20.1763 91.9491 18.8102C91.844 18.2848 91.844 17.339 91.9491 16.8136C92.3695 15.1322 93.8407 13.9763 95.5221 13.9763C95.7322 14.0813 96.0475 14.0813 96.2576 14.1864ZM110.549 18.8102C108.553 19.0203 107.081 20.4915 106.661 22.383C106.556 22.9085 106.556 23.8542 106.661 24.3797C107.081 26.061 108.342 27.217 110.024 27.6373C110.234 27.6373 110.654 27.7424 110.969 27.7424C112.231 27.7424 113.281 27.3221 114.122 26.4813C115.068 25.5355 115.383 24.5898 115.383 23.3288C115.383 21.7525 114.648 20.3864 113.386 19.6509C112.546 18.9152 111.39 18.7051 110.549 18.8102ZM55.1695 29.1085C53.8034 29.5288 53.1729 31.1051 53.9085 32.261C54.1187 32.5763 54.539 32.9966 54.8542 33.1017C55.1695 33.2067 55.1695 33.2067 55.8 33.2067C56.3254 33.2067 56.4305 33.2067 56.7458 33.1017C57.1661 32.8915 57.5864 32.4712 57.7966 32.0509C58.3221 31 57.7966 29.739 56.7458 29.2136C56.4305 29.0034 56.3254 29.0034 55.9051 29.0034C55.4848 29.0034 55.3797 29.0034 55.1695 29.1085ZM49.4949 29.2136C47.7085 29.5288 46.5525 30.6848 46.0271 32.5763C45.9221 32.8915 45.9221 33.2067 45.9221 33.6271V34.3627H45.1864H44.4509V35.939V37.5152H45.1864H45.9221V41.2983V45.0813H47.9187H49.9152V41.2983V37.5152H51.2813H52.6475V35.939V34.3627H51.2813H49.9152V34.0475C50.0203 33.3118 50.3355 32.7864 50.9661 32.6813C51.3864 32.5763 52.017 32.5763 52.4373 32.7864C52.6475 32.8915 52.7525 32.8915 52.7525 32.8915C52.7525 32.8915 52.7525 32.156 52.7525 31.2102V29.5288L52.4373 29.4237C52.017 29.2136 51.4915 29.2136 50.756 29.2136C50.2306 29.1085 49.8102 29.2136 49.4949 29.2136ZM65.4678 34.1525C64.6272 34.3627 63.9966 34.783 63.5763 35.3085L63.3661 35.6237V34.9933V34.3627H61.3695H59.3729V39.7221V45.0813H61.3695H63.3661V42.139C63.3661 40.4576 63.3661 39.0915 63.3661 38.8813C63.4712 38.461 63.6813 38.0407 63.8915 37.8305C64.417 37.4102 65.3627 37.5152 65.7831 38.0407C66.0983 38.461 66.0983 38.461 66.0983 41.8237V44.9763H68.0949H70.0915V41.4034C70.0915 37.6203 70.0915 37.2 69.8813 36.4645C69.6712 35.8339 69.461 35.3085 68.9355 34.8882C68.5152 34.4678 68.0949 34.1525 67.4645 34.0475C66.939 34.0475 65.8882 34.0475 65.4678 34.1525ZM75.4509 34.0475C74.8203 34.1525 73.8746 34.4678 73.3491 34.8882C72.1933 35.7288 71.4576 36.9898 71.1424 38.5661C71.0373 39.1966 71.0373 40.3525 71.1424 40.983C71.3525 41.9288 71.6678 42.8746 72.1933 43.5051C72.9288 44.4509 73.8746 45.0813 75.0306 45.2915C75.661 45.3966 76.7119 45.3966 77.2373 45.1864C77.8678 44.9763 78.2882 44.7661 78.8136 44.3458L79.2339 43.9254V44.4509V44.9763H81.2306H83.2271V39.617V34.2576H81.2306H79.2339V34.783V35.3085L78.9187 35.2034C78.3933 34.6779 77.6576 34.2576 76.817 34.1525C76.5017 34.0475 75.7661 34.0475 75.4509 34.0475ZM90.6882 34.1525C89.9525 34.2576 89.217 34.783 88.7966 35.3085L88.5864 35.5187V34.8882V34.2576H86.5898H84.5933V39.617V44.9763H86.5898H88.5864V41.9288C88.5864 38.6712 88.5864 38.6712 88.7966 38.1458C89.0067 37.7254 89.4271 37.5152 89.8475 37.5152C90.2678 37.5152 90.4779 37.6203 90.7933 37.8305C91.2136 38.2509 91.2136 38.1458 91.2136 41.7186V44.8712H93.2102H95.2067V40.983C95.2067 37.0949 95.2067 37.0949 95.1017 36.6746C94.9966 36.4645 94.8915 36.044 94.7864 35.7288C94.5763 35.3085 94.4712 35.2034 94.156 34.8882C93.7355 34.4678 93.4203 34.2576 93 34.0475C92.2645 34.0475 91.4237 33.9424 90.6882 34.1525ZM101.092 34.1525C99.3051 34.4678 97.939 35.3085 97.0983 36.7797C96.603 37.7704 96.3627 38.6194 96.3627 39.7221C96.3627 39.7221 96.3627 40.983 96.6779 41.7186C97.3085 43.5051 98.7797 44.8712 100.776 45.2915C101.092 45.3966 101.407 45.3966 102.142 45.3966C103.193 45.3966 103.614 45.2915 104.349 44.9763L104.769 44.7661V42.9797V41.1933L104.454 41.4034C103.929 41.7187 103.614 41.8237 102.983 41.8237C102.353 41.8237 102.037 41.8237 101.617 41.6136C101.197 41.4034 100.881 41.0882 100.671 40.6678C100.566 40.3525 100.566 40.3525 100.566 39.8272C100.566 39.4067 100.566 39.3017 100.671 38.9864C100.986 38.1458 101.722 37.7254 102.773 37.6203C103.508 37.6203 103.824 37.6203 104.875 38.1458C104.875 38.1458 104.875 37.3051 104.875 36.3594V34.5729L104.559 34.4678C103.403 34.0475 102.142 33.9424 101.092 34.1525ZM110.129 34.1525C107.081 34.6779 105.19 37.3051 105.4 40.3525C105.505 41.4034 105.82 42.3491 106.346 43.0848C107.081 44.2407 108.237 44.9763 109.708 45.2915C110.339 45.3966 112.02 45.3966 112.756 45.2915C113.807 45.0813 114.752 44.556 115.488 43.8203C115.803 43.5051 116.329 42.7695 116.329 42.7695C116.329 42.7695 115.593 42.4542 114.648 42.139L112.966 41.5085L112.756 41.7186C112.441 42.0339 112.231 42.139 111.81 42.244C110.654 42.5594 109.498 41.9288 109.288 40.8779V40.6678H112.966H116.645V39.7221C116.645 39.0915 116.645 38.6712 116.539 38.461C116.329 37.2 115.803 36.3594 115.068 35.5187C114.332 34.783 113.492 34.3627 112.336 34.1525C111.915 34.0475 110.654 34.0475 110.129 34.1525ZM53.8034 39.7221V45.0813H55.8H57.7966V39.7221V34.3627H55.8H53.8034V39.7221ZM111.705 37.0949C112.02 37.2 112.125 37.3051 112.441 37.5152C112.651 37.7254 112.861 37.9355 112.861 38.2509V38.461H111.075C109.078 38.461 109.183 38.461 109.393 38.0407C109.708 37.3051 110.654 36.8848 111.705 37.0949ZM77.7627 37.6203C78.2882 37.7254 78.9187 38.2509 79.1288 38.7763C79.6542 39.9322 79.1288 41.2983 77.8678 41.7186C77.4475 41.8237 76.817 41.8237 76.3966 41.7186C75.7661 41.5085 75.1355 40.983 75.0306 40.3525C74.9254 40.0373 74.9254 39.9322 74.9254 39.617C74.9254 39.1966 74.9254 39.0915 75.1355 38.7763C75.556 37.8305 76.6067 37.4102 77.7627 37.6203Z" fill="white"/>
</g>
<defs>
<clipPath id="clip0_1_36">
<rect width="123.969" height="46.3435" fill="white" transform="scale(1.00025)"/>
</clipPath>
</defs>
</svg>
