<svg width="171" height="47" viewBox="0 0 171 47" fill="none" xmlns="http://www.w3.org/2000/svg">
<g clip-path="url(#clip0_1_53)">
<path d="M16.5079 4.1719H20.2528C22.5333 3.83593 24.8624 4.13131 26.987 5.02599C29.6522 6.62956 31.5855 9.21115 32.3743 12.22C32.9327 13.7968 32.9327 13.7968 34.2796 13.2384H35.3307V0.75554H0.0831098V2.95646H1.52849C2.1566 2.95212 2.7777 3.08853 3.34615 3.35571C3.91461 3.62288 4.41599 4.01403 4.81346 4.5004C6.16028 6.66847 6.39024 9.09934 6.39024 21.7464C6.39024 35.1819 6.09458 38.4669 4.81346 40.1422C4.49717 40.5729 4.0877 40.9265 3.61558 41.1768C3.14346 41.4271 2.62092 41.5675 2.08694 41.5875C0.0831101 41.9489 0.0831098 41.9161 0.0831098 42.8031C-0.0277033 43.0997 -0.0277033 43.4262 0.0831098 43.7228H22.3222C22.4694 43.4327 22.5461 43.112 22.5461 42.7866C22.5461 42.4612 22.4694 42.1405 22.3222 41.8504C21.7836 41.7005 21.2347 41.5907 20.6798 41.5218C20.0796 41.4506 19.4863 41.3296 18.9059 41.1605C18.0749 40.5538 17.4166 39.7407 16.996 38.8017C16.5755 37.8626 16.4072 36.83 16.5079 35.8061C16.1795 33.6379 16.0152 29.6632 16.0152 26.3783V23.7831H17.3292C18.9663 23.733 20.6023 23.91 22.1908 24.3087C22.9519 24.779 23.5998 25.4114 24.088 26.1611C24.5764 26.9106 24.8933 27.7587 25.016 28.6449L25.3117 29.6632H27.3154V15.1108H25.4758L25.1801 16.5234C25.0558 17.4295 24.7205 18.294 24.2015 19.047C23.6822 19.8002 22.9936 20.4209 22.1908 20.8594C21.4135 21.0909 20.5945 21.1469 19.7929 21.0237H16.0152V17.476C16.0152 13.7968 16.2122 6.04432 16.3436 4.8289L16.5079 4.1719ZM170.244 30.2216C168.691 27.7225 166.27 25.8856 163.444 25.0643C161.279 24.3872 159.276 23.2688 157.564 21.7793C157.179 21.4066 156.891 20.9454 156.725 20.4358C156.558 19.9263 156.52 19.3837 156.611 18.8557C156.614 17.82 157.028 16.8275 157.761 16.0964C158.258 15.5755 158.888 15.1996 159.582 15.0086C160.277 14.8177 161.01 14.819 161.704 15.0123C163.139 15.4215 164.438 16.2116 165.461 17.2988C166.485 18.386 167.195 19.7299 167.518 21.188C168.043 22.6663 168.109 22.6663 169.061 22.272L169.653 22.0421V13.8625L169.226 13.6654C165.991 12.5296 162.562 12.0603 159.141 12.2857C156.195 12.3604 153.384 13.5318 151.257 15.5707C150.292 16.4737 149.537 17.5767 149.043 18.8023C148.549 20.0279 148.33 21.3467 148.399 22.6663C148.417 24.6836 149.218 26.615 150.633 28.0536C152.196 29.5908 154.114 30.7191 156.217 31.3385C161.309 33.3423 162.787 34.6235 162.787 36.9558C162.81 37.9393 162.496 38.9011 161.899 39.683C161.303 40.4652 160.457 41.0208 159.502 41.2591C158.355 41.5111 157.167 41.5111 156.02 41.2591C154.518 40.6763 153.177 39.7431 152.109 38.5377C151.041 37.332 150.275 35.8887 149.877 34.3279L149.45 33.2766H148.859C148.576 33.2977 148.299 33.3642 148.038 33.4738H147.709V42.8031H148.268C150.487 43.5412 152.777 44.0477 155.1 44.3141H158.385C159.81 44.4186 161.242 44.2855 162.623 43.9198C164.376 43.5964 166.014 42.8198 167.374 41.6673C168.734 40.5147 169.769 39.0264 170.375 37.3499C170.767 36.4137 170.968 35.4085 170.966 34.3935C171.096 32.9635 170.847 31.5247 170.244 30.2216ZM139.3 13.2384C137.331 12.4119 135.21 12.011 133.076 12.062C130.942 12.1129 128.842 12.6146 126.915 13.534C125.104 14.4199 123.499 15.6758 122.203 17.2205C120.908 18.7651 119.95 20.5644 119.393 22.502C118.682 24.6157 118.381 26.8454 118.506 29.0719C118.482 30.2833 118.581 31.4939 118.802 32.6853C119.332 35.6148 120.746 38.312 122.854 40.4142C124.963 42.5164 127.663 43.9232 130.595 44.4455C132.503 44.686 134.435 44.686 136.343 44.4455C138.324 44.0964 140.219 43.3717 141.928 42.3102C143.341 41.5182 144.537 40.3899 145.41 39.0252C145.354 38.8112 145.255 38.6107 145.12 38.4357C144.984 38.2607 144.815 38.1148 144.621 38.0069C144.246 38.1428 143.893 38.3307 143.57 38.5655C141.936 39.6423 140.007 40.182 138.051 40.1094C136.753 40.1971 135.452 39.995 134.242 39.5178C133.032 39.0406 131.943 38.3 131.054 37.3499C130.367 36.7115 129.8 35.9549 129.379 35.1162C128.358 33.0741 127.808 30.8291 127.769 28.5463V27.2652H145.968V26.6082C146.008 25.9517 146.008 25.2936 145.968 24.6373C145.962 22.3177 145.341 20.0412 144.17 18.0392C142.999 16.0371 141.318 14.3807 139.3 13.2384ZM130.135 24.6043H127.835V22.6663C128.591 17.7059 130.463 14.7495 132.763 14.7495C135.062 14.7495 136.048 17.6731 136.475 23.0276V24.5387H134.504L130.135 24.6043ZM82.897 12.1543C81.7618 12.1103 80.6335 12.3473 79.612 12.8442C77.3917 13.9224 75.5985 15.7157 74.5204 17.9358L74.0932 18.7243V12.1543H73.929C73.5348 12.1543 61.3805 14.5852 60.9863 14.7495C60.592 14.9137 60.7235 14.9466 60.7235 15.5379C60.7235 16.1291 60.7235 16.2277 60.9863 16.2605L62.2673 16.5234C62.6263 16.5322 62.9783 16.6225 63.297 16.7876C63.6157 16.9527 63.8928 17.1881 64.1069 17.476C64.9282 18.5601 65.0925 20.4653 65.0925 28.5792C65.2547 32.2319 65.1008 35.8918 64.6326 39.5181C64.5223 40.0648 64.245 40.5639 63.8391 40.9464C63.433 41.3288 62.9183 41.5759 62.3659 41.6532L61.249 41.8832H60.822V42.8031C60.7029 43.1094 60.7029 43.4493 60.822 43.7557H79.185V42.8031C79.2486 42.4887 79.2486 42.1648 79.185 41.8504C78.0794 41.8073 76.9799 41.6644 75.9 41.4234C75.3119 41.1158 74.8309 40.6373 74.52 40.0509C74.2092 39.4644 74.0834 38.7977 74.159 38.1384C73.8961 36.2331 73.7648 30.6486 73.8305 26.3783C73.8961 22.1077 73.8304 21.845 74.1918 21.5494C75.291 20.7065 76.6513 20.2763 78.0351 20.3338C79.3397 20.3624 80.6206 20.6881 81.78 21.2865C82.182 21.5097 82.6133 21.6756 83.0612 21.7793C83.0612 21.7793 86.3462 13.8297 86.3462 13.4683C85.9257 12.9798 85.3902 12.6039 84.788 12.3744C84.1857 12.145 83.5357 12.0694 82.897 12.1543ZM60.7563 25.9513C60.6417 23.6038 59.9678 21.3178 58.7906 19.2835C57.6136 17.2493 55.9673 15.5259 53.9893 14.2567C51.6386 12.9886 49.0231 12.2893 46.3533 12.2152C43.6833 12.141 41.0331 12.694 38.6156 13.8297C35.1977 15.6321 32.6169 18.6959 31.4217 22.3706C30.1871 26.4847 30.1871 30.8706 31.4217 34.9848C32.0689 37.2333 33.2785 39.2797 34.9366 40.9305C37.0014 42.9455 39.664 44.2364 42.5248 44.6097C44.3612 44.7633 46.2071 44.7633 48.0435 44.6097C48.7193 44.507 49.3883 44.3643 50.0474 44.1827C52.7212 43.4348 55.1267 41.9407 56.9825 39.8756C58.8382 37.8103 60.0675 35.2594 60.5263 32.5212C60.8543 30.3472 60.9315 28.1428 60.7563 25.9513ZM47.0908 42.376C43.8059 43.3614 41.3422 40.1751 40.5209 33.4738C40.2194 29.9653 40.2194 26.4374 40.5209 22.929C41.1779 17.5417 42.8532 14.8152 45.4484 14.8152C45.972 14.7827 46.4957 14.8761 46.9758 15.0876C47.4559 15.2991 47.8782 15.6224 48.2078 16.0305C50.4087 18.2315 51.4927 22.6004 51.4927 29.1704C51.766 32.8886 51.1816 36.6199 49.7845 40.0765C49.1676 41.0846 48.2132 41.8411 47.0908 42.2118V42.376ZM106.22 12.8113C105.293 12.6921 104.355 12.6921 103.428 12.8113C101.649 12.8098 99.8897 13.1907 98.2705 13.9282L97.2522 14.3553V7.22691C97.4302 4.82123 97.4302 2.40568 97.2522 0C96.8581 0 84.3095 2.39803 84.1123 2.49657C84.0155 2.7391 84.0155 3.00958 84.1123 3.25212C84.1123 3.94195 84.1123 3.90911 85.5906 4.2376C86.0057 4.33068 86.4044 4.48571 86.7732 4.6975C87.4144 5.30047 87.8413 6.09636 87.9886 6.96411C88.3626 9.46403 88.4837 11.9953 88.3499 14.5195V43.3614L89.2369 43.5585C90.5509 43.8542 94.2629 44.4784 95.4784 44.6097C97.9053 44.8028 100.344 44.8028 102.771 44.6097C105.465 44.3345 108.033 43.3295 110.198 41.7029C112.363 40.0763 114.042 37.8898 115.057 35.3789C115.661 33.7675 116.08 32.0922 116.305 30.3859C116.501 28.0744 116.423 25.748 116.075 23.4546C115.723 20.8839 114.588 18.4837 112.825 16.5798C111.062 14.6758 108.756 13.3602 106.22 12.8113ZM97.6135 41.8175C97.6135 41.3905 97.2851 27.0023 97.3508 21.2537V16.7534L98.3034 16.5234C98.9462 16.4312 99.5987 16.4312 100.241 16.5234C100.952 16.451 101.667 16.6126 102.278 16.9832C103.505 17.8299 104.524 18.9438 105.258 20.2411C105.992 21.5385 106.422 22.9853 106.516 24.473C106.755 26.8651 106.755 29.2749 106.516 31.667C106.319 35.1437 104.98 38.4579 102.705 41.0948C102.06 41.708 101.249 42.1191 100.373 42.2774C99.7099 42.3927 99.032 42.3927 98.3691 42.2774C97.745 42.2774 97.7449 42.0804 97.7449 41.8175H97.6135Z" fill="white"/>
</g>
<defs>
<clipPath id="clip0_1_53">
<rect width="170.984" height="46.3416" fill="white"/>
</clipPath>
</defs>
</svg>
