<svg width="243" height="47" viewBox="0 0 243 47" fill="none" xmlns="http://www.w3.org/2000/svg">
<g clip-path="url(#clip0_1_39)">
<path d="M0 0H17.815C21.2083 0 23.7533 0.84754 25.6385 2.2601C27.7122 3.95519 28.8434 6.40363 28.8434 9.41708C28.8434 12.9014 27.4295 15.0674 24.6016 16.3857V16.5741C28.372 17.7983 30.5401 21.1885 30.5401 25.2379C30.5401 29.0988 29.0318 32.1124 26.581 33.9957C24.5074 35.5025 21.8681 36.1616 18.2863 36.1616H0V0ZM16.0241 14.1256C17.9093 14.1256 19.3231 13.0898 19.3231 10.9238C19.3231 8.85206 17.9093 7.81618 15.9298 7.81618H9.80297V14.0315H16.0241V14.1256ZM16.8724 28.157C19.0404 28.157 20.6428 26.8387 20.6428 24.4844C20.6428 21.9418 18.9462 20.8117 16.8724 20.8117H9.89722V28.2513H16.8724V28.157Z" fill="white"/>
<path d="M32.143 0H41.4747V36.2558H32.143V0Z" fill="white"/>
<path d="M43.3594 23.3547C43.3594 15.1618 48.6379 9.69985 56.8385 9.69985C65.0389 9.69985 70.2233 15.2559 70.2233 23.3547C70.2233 31.5475 65.0389 37.0094 56.8385 37.0094C48.6379 37.0094 43.3594 31.5475 43.3594 23.3547ZM60.8915 23.3547C60.8915 18.8345 59.4777 16.0093 56.6498 16.0093C53.8221 16.0093 52.5025 18.8345 52.5025 23.3547C52.5025 27.8749 53.8221 30.7942 56.6498 30.7942C59.4777 30.7 60.8915 27.8749 60.8915 23.3547Z" fill="white"/>
<path d="M71.2606 23.3547C71.2606 15.1618 76.5391 9.69985 84.7397 9.69985C92.9403 9.69985 98.0303 15.1618 98.0303 23.3547C98.0303 31.5475 92.846 37.0094 84.6454 37.0094C76.5391 37.0094 71.2606 31.5475 71.2606 23.3547ZM88.7929 23.3547C88.7929 18.8345 87.3789 16.0093 84.5512 16.0093C81.7235 16.0093 80.4037 18.8345 80.4037 23.3547C80.4037 27.8749 81.7235 30.7942 84.5512 30.7942C87.3789 30.7 88.7929 27.8749 88.7929 23.3547Z" fill="white"/>
<path d="M99.9149 10.3586H108.587V14.2195H108.775C110.472 11.2061 112.828 9.60518 116.599 9.60518C119.898 9.60518 122.349 11.2061 123.574 14.0312H123.762C125.836 10.6411 128.57 9.60518 131.775 9.60518C137.807 9.60518 140.352 14.0312 140.352 19.964V36.1614H131.303V21.5649C131.303 18.9281 130.455 17.233 128.193 17.233C125.93 17.233 124.799 19.3048 124.799 22.1299V36.1614H115.751V21.5649C115.751 18.9281 114.902 17.233 112.64 17.233C110.378 17.233 109.246 19.3048 109.246 22.1299V36.1614H99.9149V10.3586Z" fill="white"/>
<path d="M151.757 32.7714H151.663V36.1616H142.991V0H152.04V12.9956H152.229C153.925 10.7355 156.282 9.51126 159.581 9.51126C166.085 9.51126 169.855 15.3499 169.855 23.1661C169.855 31.9239 165.802 37.0091 159.015 37.0091C156.187 37.0091 153.265 35.6908 151.757 32.7714ZM160.523 23.0718C160.523 18.9284 159.015 16.1974 156.282 16.1974C153.454 16.1974 151.757 18.9284 151.757 23.0718C151.757 27.2154 153.548 29.9463 156.282 29.9463C159.015 29.9463 160.523 27.3095 160.523 23.0718Z" fill="white"/>
<path d="M170.892 23.2599C170.892 15.1613 176.265 9.60518 183.994 9.60518C187.859 9.60518 190.781 10.8294 193.044 12.9953C196.06 15.9146 197.379 20.4348 197.284 25.7085H179.941C180.318 28.9102 181.826 30.6052 184.56 30.6052C186.162 30.6052 187.576 29.8519 188.141 28.1569H196.908C195.4 34.0896 190.781 37.0089 184.277 37.0089C176.265 36.9147 170.892 31.4528 170.892 23.2599ZM179.941 20.5291H188.236C188.047 17.4214 186.351 15.8205 184.183 15.8205C181.638 15.7263 180.224 17.5155 179.941 20.5291Z" fill="white"/>
<path d="M207.559 14.785H207.748C209.633 11.2065 212.083 9.79391 215.194 9.79391C215.947 9.79391 216.42 9.88807 216.702 10.0764V17.9868H216.513C211.141 17.0451 208.03 19.5876 208.03 25.4263V36.256H198.887V10.3589H207.559V14.785Z" fill="white"/>
<path d="M217.645 36.2556H226.411C226.788 37.3856 227.919 38.4216 230.086 38.4216C233.009 38.4216 234.046 36.6323 234.046 33.9015V32.0179H233.857C232.443 33.713 230.464 34.9373 227.635 34.9373C222.074 34.9373 217.173 30.7937 217.173 22.6951C217.173 15.2555 221.132 9.51112 227.164 9.51112C230.652 9.51112 232.725 10.9237 234.139 13.0896H234.328V10.2645H243V32.6772C243 36.8206 241.587 40.0225 239.418 41.906C237.155 43.8836 233.952 44.7311 230.275 44.7311C223.3 44.8251 218.492 42 217.645 36.2556ZM234.423 22.3183C234.423 19.1165 232.915 16.4798 230.275 16.4798C227.73 16.4798 226.127 18.7399 226.127 22.3183C226.127 25.8027 227.73 28.2511 230.275 28.2511C232.82 28.2511 234.423 25.7085 234.423 22.3183Z" fill="white"/>
</g>
<defs>
<clipPath id="clip0_1_39">
<rect width="242.828" height="46.3412" fill="white" transform="scale(1.00071)"/>
</clipPath>
</defs>
</svg>
