<svg width="130" height="130" viewBox="0 0 130 130" fill="none" xmlns="http://www.w3.org/2000/svg">
<g opacity="0.930588" clip-path="url(#clip0_1_126)">
<path d="M64.8518 0C29.0358 0 0 29.0358 0 64.8525C0 100.671 29.0358 129.705 64.8518 129.705C100.672 129.705 129.705 100.671 129.705 64.8525C129.705 29.0381 100.672 0.00309773 64.851 0.00309773L64.8518 0ZM94.5924 93.536C94.3157 93.9895 93.9522 94.3839 93.5228 94.6968C93.0935 95.0097 92.6066 95.2347 92.0901 95.3591C91.5737 95.4836 91.0377 95.5049 90.5129 95.4221C89.9882 95.3391 89.4851 95.1534 89.0321 94.8758C73.8056 85.5748 54.6372 83.4684 32.0631 88.6261C31.0178 88.8638 29.9209 88.6767 29.0135 88.1061C28.106 87.5354 27.4623 86.6277 27.2238 85.5826C27.105 85.0651 27.0894 84.5292 27.1779 84.0057C27.2665 83.4823 27.4575 82.9813 27.7398 82.5317C28.0223 82.0822 28.3906 81.6927 28.8237 81.3857C29.2569 81.0786 29.7463 80.86 30.2641 80.7424C54.9679 75.0983 76.1582 77.5285 93.2527 87.9756C95.1577 89.145 95.7618 91.6309 94.5924 93.536ZM102.53 75.8774C101.067 78.2565 97.9535 79.0076 95.5759 77.5439C78.1439 66.8289 51.5714 63.7258 30.9526 69.9848C28.2785 70.7924 25.4542 69.2854 24.6426 66.6159C24.2554 65.3325 24.3929 63.948 25.0249 62.7658C25.657 61.5836 26.7321 60.7004 28.0144 60.3097C51.5667 53.1633 80.8465 56.625 100.865 68.9269C103.242 70.3905 103.994 73.5038 102.53 75.8782V75.8774ZM103.211 57.4892C82.3101 45.0743 47.8255 43.9328 27.8697 49.9897C24.6651 50.9616 21.2763 49.1525 20.3051 45.9479C19.8382 44.4083 20.0018 42.7462 20.76 41.3272C21.5182 39.9081 22.8089 38.8484 24.3484 38.3809C47.2563 31.4265 85.3382 32.7702 109.402 47.0561C110.088 47.4618 110.688 47.9988 111.166 48.6365C111.644 49.2741 111.991 49.9998 112.188 50.7718C112.385 51.5439 112.428 52.3474 112.314 53.1361C112.2 53.9248 111.932 54.6833 111.524 55.3681C109.821 58.2506 106.088 59.2007 103.215 57.4892H103.211Z" fill="#61D96C"/>
</g>
<defs>
<clipPath id="clip0_1_126">
<rect width="129.625" height="129.625" fill="white" transform="scale(1.00289)"/>
</clipPath>
</defs>
</svg>
