<svg width="127" height="130" viewBox="0 0 127 130" fill="none" xmlns="http://www.w3.org/2000/svg">
<g opacity="0.930588" clip-path="url(#clip0_1_130)">
<path d="M110.29 106.668C56.8077 132.121 23.6162 110.825 2.36937 97.8908C1.05461 97.0757 -1.18 98.0815 0.758834 100.308C7.83723 108.891 31.0347 129.578 61.3141 129.578C91.6142 129.578 109.64 113.045 111.895 110.161C114.135 107.301 112.553 105.723 110.289 106.668H110.29ZM125.31 98.3731C123.874 96.503 116.576 96.1544 111.984 96.7184C107.385 97.2663 100.482 100.077 101.082 101.765C101.39 102.397 102.018 102.114 105.178 101.829C108.346 101.513 117.222 100.393 119.071 102.811C120.929 105.245 116.241 116.842 115.384 118.712C114.557 120.582 115.7 121.065 117.255 119.819C118.786 118.574 121.562 115.349 123.424 110.786C125.273 106.198 126.401 99.7972 125.309 98.3731H125.31Z" fill="#FF9900"/>
<path fill-rule="evenodd" clip-rule="evenodd" d="M74.3288 54.7305C74.3288 61.409 74.4975 66.9785 71.1219 72.9094C68.3975 77.7318 64.0817 80.6973 59.2598 80.6973C52.6774 80.6973 48.844 75.6822 48.844 68.2805C48.844 53.6694 61.9355 51.0175 74.3288 51.0175V54.7305ZM91.6157 96.5138C90.4824 97.5262 88.8429 97.5989 87.5652 96.9234C81.8753 92.1982 80.8624 90.0042 77.7282 85.4953C68.3253 95.0914 61.6707 97.9603 49.4711 97.9603C35.0531 97.9603 23.8175 89.0634 23.8175 71.246C23.8175 57.3347 31.3645 47.859 42.0928 43.2302C51.3998 39.131 64.3953 38.4077 74.3288 37.2749V35.0566C74.3288 30.9817 74.6419 26.1598 72.2553 22.6399C70.1575 19.4814 66.1552 18.1793 62.6348 18.1793C56.1012 18.1793 50.2665 21.5305 48.844 28.4742C48.5543 30.0176 47.4214 31.5367 45.8785 31.6088L29.2421 29.825C27.8441 29.511 26.3011 28.3781 26.6869 26.2319C30.5203 6.07621 48.7229 0 65.0214 0C73.3637 0 84.2614 2.21835 90.8437 8.53545C99.186 16.3228 98.3902 26.7142 98.3902 38.022V64.7363C98.3902 72.765 101.717 76.285 104.852 80.6251C105.961 82.168 106.202 84.0251 104.803 85.1817C101.307 88.0988 95.0868 93.5241 91.6635 96.5622L91.6152 96.5138" fill="black"/>
<path d="M110.29 106.668C56.8077 132.121 23.6162 110.825 2.36937 97.8908C1.05461 97.0757 -1.18 98.0815 0.758834 100.308C7.83723 108.891 31.0347 129.578 61.3141 129.578C91.6142 129.578 109.64 113.045 111.895 110.161C114.135 107.301 112.553 105.723 110.289 106.668H110.29ZM125.31 98.3731C123.874 96.503 116.576 96.1544 111.984 96.7184C107.385 97.2663 100.482 100.077 101.082 101.765C101.39 102.397 102.018 102.114 105.178 101.829C108.346 101.513 117.222 100.393 119.071 102.811C120.929 105.245 116.241 116.842 115.384 118.712C114.557 120.582 115.7 121.065 117.255 119.819C118.786 118.574 121.562 115.349 123.424 110.786C125.273 106.198 126.401 99.7972 125.309 98.3731H125.31Z" fill="#FF9900"/>
<path fill-rule="evenodd" clip-rule="evenodd" d="M74.3288 54.7305C74.3288 61.409 74.4975 66.9785 71.1219 72.9094C68.3975 77.7318 64.0817 80.6973 59.2598 80.6973C52.6774 80.6973 48.844 75.6822 48.844 68.2805C48.844 53.6694 61.9355 51.0175 74.3288 51.0175V54.7305ZM91.6157 96.5138C90.4824 97.5262 88.8429 97.5989 87.5652 96.9234C81.8753 92.1982 80.8624 90.0042 77.7282 85.4953C68.3253 95.0914 61.6707 97.9603 49.4711 97.9603C35.0531 97.9603 23.8175 89.0634 23.8175 71.246C23.8175 57.3347 31.3645 47.859 42.0928 43.2302C51.3998 39.131 64.3953 38.4077 74.3288 37.2749V35.0566C74.3288 30.9817 74.6419 26.1598 72.2553 22.6399C70.1575 19.4814 66.1552 18.1793 62.6348 18.1793C56.1012 18.1793 50.2665 21.5305 48.844 28.4742C48.5543 30.0176 47.4214 31.5367 45.8785 31.6088L29.2421 29.825C27.8441 29.511 26.3011 28.3781 26.6869 26.2319C30.5203 6.07621 48.7229 0 65.0214 0C73.3637 0 84.2614 2.21835 90.8437 8.53545C99.186 16.3228 98.3902 26.7142 98.3902 38.022V64.7363C98.3902 72.765 101.717 76.285 104.852 80.6251C105.961 82.168 106.202 84.0251 104.803 85.1817C101.307 88.0988 95.0868 93.5241 91.6635 96.5622L91.6152 96.5138" fill="black"/>
</g>
<defs>
<clipPath id="clip0_1_130">
<rect width="126.384" height="129.625" fill="white" transform="scale(1.00289)"/>
</clipPath>
</defs>
</svg>
