<svg width="130" height="101" viewBox="0 0 130 101" fill="none" xmlns="http://www.w3.org/2000/svg">
<g opacity="0.930588" clip-path="url(#clip0_1_149)">
<path d="M127.099 17.3197C123.035 17.3197 120.152 20.4998 120.152 25.3814V43.288H113.948V11.7693H120.078V15.6182C120.834 14.3425 121.917 13.2923 123.215 12.5764C124.515 11.8604 125.981 11.5048 127.463 11.5464H129.692V17.3197H127.099ZM109.661 27.5286C109.661 18.1295 102.973 11.1006 93.9235 11.1006C91.7852 11.1152 89.6709 11.5523 87.7023 12.387C85.7336 13.2217 83.9494 14.4373 82.4523 15.9642C80.9552 17.4909 79.7748 19.2987 78.9789 21.2834C78.1831 23.268 77.7875 25.3905 77.8149 27.5286C77.8149 36.9204 85.0593 44.0236 94.5109 44.0236C97.1505 44.0734 99.7637 43.4879 102.13 42.3164C104.496 41.1448 106.546 39.4216 108.107 37.2918L103.605 33.9928C102.572 35.4346 101.205 36.6047 99.6214 37.4031C98.0379 38.2014 96.2838 38.6043 94.5109 38.5773C91.9847 38.5653 89.5467 37.6489 87.6384 35.9942C85.7302 34.3394 84.4777 32.0557 84.1084 29.5571H109.676L109.661 27.5286ZM84.242 24.6383C85.3492 19.831 89.1905 16.5766 93.8492 16.5766C98.5079 16.5766 102.342 19.831 103.382 24.6383H84.242ZM58.1622 11.1006C56.0889 11.1024 54.0364 11.515 52.1235 12.3146C50.2105 13.1142 48.4749 14.285 47.0171 15.7593V0H40.8129V43.288H46.9428V39.2905C49.9123 42.2947 53.9531 43.997 58.1771 44.0236C60.3683 44.0701 62.5467 43.6788 64.5847 42.8724C66.6226 42.066 68.4791 40.861 70.0452 39.3277C71.6113 37.7946 72.8556 35.9641 73.7051 33.9438C74.5545 31.9234 74.9921 29.7538 74.9921 27.5621C74.9921 25.3704 74.5545 23.2008 73.7051 21.1805C72.8556 19.1601 71.6113 17.3297 70.0452 15.7964C68.4791 14.2633 66.6226 13.0581 64.5847 12.2517C62.5467 11.4455 60.3683 11.0541 58.1771 11.1006H58.1622ZM57.7165 38.4807C55.5539 38.491 53.4371 37.8586 51.6345 36.664C49.832 35.4692 48.4249 33.766 47.5919 31.7703C46.7589 29.7746 46.5375 27.5765 46.9558 25.4548C47.374 23.333 48.4132 21.3834 49.9412 19.8533C51.4694 18.323 53.4176 17.2812 55.5387 16.8601C57.6599 16.4389 59.8583 16.6573 61.8551 17.4875C63.8519 18.3178 65.5571 19.7226 66.7543 21.5235C67.9514 23.3244 68.5866 25.4404 68.5793 27.603C68.5813 29.0294 68.3016 30.442 67.7561 31.76C67.2107 33.078 66.4105 34.2753 65.4012 35.2833C64.3919 36.2912 63.1934 37.0898 61.8747 37.6335C60.5559 38.177 59.1428 38.4548 57.7165 38.451V38.4807ZM17.9652 38.1834C23.954 38.1834 28.6052 33.5916 28.6052 26.7113V0H35.0322V43.288H28.6795V39.194C27.1953 40.728 25.4153 41.9449 23.4472 42.7711C21.4793 43.5975 19.364 44.0159 17.2297 44.0012C7.99399 44.0012 0.883341 37.2696 0.883341 27.0605V0H7.42929V26.7485C7.42929 33.666 11.8874 38.1834 17.9652 38.1834Z" fill="#262626"/>
<path d="M0 56.2826H30.367V63.7128H8.20286V74.2635H29.7502V81.4411H8.20286V92.1701H30.367V99.6008H0V56.2826ZM114.231 100.381C123.541 100.381 128.787 95.9221 128.787 89.8C128.787 85.4385 125.681 82.1841 119.18 80.7723L112.307 79.368C108.316 78.625 107.061 77.882 107.061 76.3959C107.061 74.4716 108.985 73.2902 112.529 73.2902C116.371 73.2902 119.217 74.3229 119.96 77.8746H128.014C127.575 71.1875 122.768 66.774 113.02 66.774C104.594 66.774 98.6794 70.2513 98.6794 76.9904C98.6794 81.6491 101.934 84.6806 108.955 86.1591L116.638 87.935C119.67 88.5294 120.48 89.3467 120.48 90.6024C120.48 92.6011 118.192 93.8568 114.491 93.8568C109.84 93.8568 107.179 92.824 106.147 89.2724H98.0483C99.2296 95.9447 104.178 100.381 114.231 100.381ZM95.7073 99.5706H86.992C81.5235 99.5706 78.4919 96.168 78.4919 91.8729V74.8579H72.3621V67.6062H78.5217V58.5042H86.6205V67.6062H95.7073V74.8579H86.6205V89.8C86.6205 91.5015 87.8019 92.3188 89.6521 92.3188H95.7073V99.5706ZM60.7859 67.621V70.5038C57.9345 68.0935 54.3181 66.7765 50.5844 66.7888C48.349 66.7418 46.1267 67.1415 44.0478 67.9644C41.9689 68.7874 40.0751 70.017 38.4776 71.5813C36.8801 73.1456 35.6109 75.013 34.7444 77.0742C33.8779 79.1354 33.4316 81.3488 33.4316 83.5847C33.4316 85.8205 33.8779 88.0339 34.7444 90.095C35.6109 92.1562 36.8801 94.0237 38.4776 95.5877C40.0751 97.1524 41.9689 98.3818 44.0478 99.2051C46.1267 100.027 48.349 100.428 50.5844 100.381C54.3188 100.397 57.9365 99.0789 60.7859 96.6654V99.5555H68.8625V67.6062L60.7859 67.621ZM51.2531 93.3664C49.3157 93.3886 47.4155 92.8342 45.794 91.7737C44.1725 90.7133 42.9028 89.1947 42.1464 87.411C41.39 85.6273 41.181 83.6589 41.5458 81.7561C41.9108 79.8533 42.8332 78.102 44.1959 76.7246C45.5585 75.3473 47.2999 74.4062 49.1987 74.0209C51.0974 73.6356 53.0679 73.8236 54.8596 74.5609C56.6514 75.2981 58.1835 76.5514 59.2612 78.1615C60.3389 79.7716 60.9136 81.6658 60.9123 83.6032C60.924 84.8804 60.6824 86.1473 60.2014 87.3305C59.7203 88.5136 59.0094 89.5897 58.1096 90.4962C57.21 91.4028 56.1394 92.1221 54.96 92.6121C53.7804 93.1023 52.5155 93.3536 51.2382 93.3515L51.2531 93.3664Z" fill="#5FB709"/>
</g>
<defs>
<clipPath id="clip0_1_149">
<rect width="129.617" height="100.5" fill="white" transform="scale(1.00296)"/>
</clipPath>
</defs>
</svg>
