<svg width="31" height="30" viewBox="0 0 31 30" fill="none" xmlns="http://www.w3.org/2000/svg">
<path fill-rule="evenodd" clip-rule="evenodd" d="M11.2107 3.68674H21.0422C24.4359 3.68674 27.187 6.43776 27.187 9.83131V19.6626C27.187 23.0561 24.4359 25.8072 21.0422 25.8072H11.2107C7.81705 25.8072 5.06596 23.0561 5.06596 19.6626V9.83131C5.06596 6.43776 7.81705 3.68674 11.2107 3.68674ZM21.9695 10.1366C22.6482 10.1366 23.1984 9.58641 23.1984 8.9077C23.1984 8.229 22.6482 7.67879 21.9695 7.67879C21.2907 7.67879 20.7405 8.229 20.7405 8.9077C20.7405 9.58641 21.2907 10.1366 21.9695 10.1366ZM16.1278 9.21687C13.0735 9.21687 10.5975 11.6928 10.5975 14.747C10.5975 17.8012 13.0735 20.2771 16.1278 20.2771C19.182 20.2771 21.658 17.8012 21.658 14.747C21.6613 13.2793 21.0797 11.8708 20.0419 10.833C19.004 9.79518 17.5955 9.21359 16.1278 9.21687ZM12.748 14.745C12.748 16.6116 14.2611 18.1246 16.1276 18.1246C17.9941 18.1246 19.5071 16.6116 19.5071 14.745C19.5071 12.8786 17.9941 11.3655 16.1276 11.3655C14.2611 11.3655 12.748 12.8786 12.748 14.745Z" fill="white"/>
</svg>
