<svg width="39" height="39" viewBox="0 0 39 39" fill="none" xmlns="http://www.w3.org/2000/svg">
<path fill-rule="evenodd" clip-rule="evenodd" d="M35.7499 9.75026C35.7499 7.95536 34.2948 6.50028 32.5 6.50028H6.49992C4.705 6.50028 3.24992 7.95536 3.24992 9.75026V29.2503C3.24992 31.0452 4.705 32.5003 6.49992 32.5003H32.5C34.2948 32.5003 35.7499 31.0452 35.7499 29.2503V9.75026ZM16.2499 26.8128C16.2499 27.2615 15.8862 27.6253 15.4375 27.6253H10.5625C10.1137 27.6253 9.74992 27.2615 9.74992 26.8128V25.1878C9.74992 24.739 10.1137 24.3753 10.5625 24.3753H15.4375C15.8862 24.3753 16.2499 24.739 16.2499 25.1878V26.8128ZM31.6874 19.5003C32.1362 19.5003 32.5 19.1365 32.5 18.6878V15.4378C32.5 14.989 32.1362 14.6253 31.6874 14.6253H7.31242C6.86369 14.6253 6.49992 14.989 6.49992 15.4378V18.6878C6.49992 19.1365 6.86369 19.5003 7.31242 19.5003H31.6874Z" fill="#6FDBD4"/>
</svg>
