<svg width="39" height="39" viewBox="0 0 39 39" fill="none" xmlns="http://www.w3.org/2000/svg">
<path fill-rule="evenodd" clip-rule="evenodd" d="M28.7078 6.60831H34.2327C34.7211 6.60831 35.1896 6.80234 35.5349 7.14771C35.8803 7.49309 36.0743 7.96151 36.0743 8.44994V15.8165C36.0743 17.7702 35.2982 19.6439 33.9167 21.0254C32.5353 22.4069 30.6616 23.183 28.7078 23.183H28.45C28.0428 24.7603 27.1241 26.1581 25.8379 27.1578C24.5517 28.1575 22.9703 28.7026 21.3413 28.7078V28.7082H21.3424V32.3915H25.9464C26.1906 32.3915 26.4248 32.4885 26.5975 32.6613C26.7702 32.8339 26.8672 33.0681 26.8672 33.3124V35.154C26.8672 35.3982 26.7702 35.6324 26.5975 35.8051C26.4248 35.9777 26.1906 36.0747 25.9464 36.0747H13.055C12.8108 36.0747 12.5765 35.9777 12.4039 35.8051C12.2312 35.6324 12.1342 35.3982 12.1342 35.154V33.3124C12.1342 33.0681 12.2312 32.8339 12.4039 32.6613C12.5765 32.4885 12.8108 32.3915 13.055 32.3915H17.6591V32.3911H17.658V28.7078C16.029 28.7026 14.4476 28.1575 13.1614 27.1578C11.8752 26.1581 10.9566 24.7603 10.5493 23.183H10.2915C8.3378 23.183 6.46409 22.4069 5.08261 21.0254C3.70111 19.6439 2.925 17.7702 2.925 15.8165V8.44994C2.925 7.96151 3.11903 7.49309 3.4644 7.14771C3.80977 6.80234 4.2782 6.60831 4.76663 6.60831H10.2915V4.76668C10.2915 4.27825 10.4855 3.80982 10.8309 3.46445C11.1763 3.11907 11.6447 2.92505 12.1332 2.92505H26.8662C27.3546 2.92505 27.8231 3.11907 28.1684 3.46445C28.5138 3.80982 28.7078 4.27825 28.7078 4.76668V6.60831ZM7.68707 18.4209C8.37781 19.1117 9.31466 19.4998 10.2915 19.4998V10.2916H6.60827V15.8165C6.60827 16.7933 6.99632 17.7302 7.68707 18.4209ZM31.3123 18.4209C32.003 17.7302 32.3911 16.7933 32.3911 15.8165V10.2916H28.7078V19.4998C29.6847 19.4998 30.6215 19.1117 31.3123 18.4209Z" fill="#6FDBD4"/>
</svg>
