<svg width="248" height="60" viewBox="0 0 248 60" fill="none" xmlns="http://www.w3.org/2000/svg">
<path d="M29.8978 25.0532C22.0397 23.6968 14.0161 21.5425 14.0161 17.4734C14.0161 14.1223 17.9038 11.4894 22.8669 11.4894C26.92 11.4894 30.5596 14.2021 31.6349 17.7925H44.7869C44.7869 7.65958 34.7781 0 22.8669 0C9.63213 0 1.19498 7.42022 1.19498 17.9521C1.19498 26.1702 9.30127 30.7181 18.9792 32.8723C27.7472 34.8671 33.0411 36.0638 33.0411 40.8511C33.0411 45.7181 28.9879 48.5106 22.8669 48.5106C17.573 48.5106 13.8508 44.6808 13.2717 39.734H0.367815C0.367815 50.5852 10.0457 60 22.8669 60C36.9288 60 45.8622 51.8617 45.8622 40.8511C45.8622 31.7554 38.0041 26.4894 29.8978 25.0532Z" fill="white"/>
<path d="M74.4364 14.3616C60.8708 14.3616 49.8695 24.5744 49.8695 37.1808C49.8695 49.7872 60.8708 60 74.4364 60C79.813 60 84.6106 57.367 87.423 53.3776V58.7233H99.0033V37.1808C99.0033 24.5744 88.002 14.3616 74.4364 14.3616ZM74.6845 49.1489C67.819 49.1489 62.277 43.8031 62.277 37.1808C62.277 30.5585 67.819 25.2127 74.6845 25.2127C81.5501 25.2127 87.0921 30.5585 87.0921 37.1808C87.0921 43.8031 81.5501 49.1489 74.6845 49.1489Z" fill="white"/>
<path d="M131.443 14.3618C126.729 14.3618 122.428 16.197 119.284 19.2289V1.27672H106.876V58.7235H118.457V53.3778C121.27 57.3672 126.067 60.0001 131.443 60.0001C145.009 60.0001 156.011 49.7874 156.011 37.181C156.011 24.5745 145.009 14.3618 131.443 14.3618ZM131.195 49.1491C124.33 49.1491 118.788 43.8033 118.788 37.181C118.788 30.5586 124.33 25.2129 131.195 25.2129C138.061 25.2129 143.603 30.5586 143.603 37.181C143.603 43.8033 138.061 49.1491 131.195 49.1491Z" fill="white"/>
<path d="M161.805 58.7235H174.213V1.27672H161.805V58.7235Z" fill="white"/>
<path d="M204.819 14.3616C191.088 14.3616 180.003 24.5744 180.003 37.1808C180.003 49.7872 191.088 60 204.819 60C215.737 60 225.001 53.5372 228.311 44.5212H214.579C212.345 47.3137 208.789 49.1489 204.819 49.1489C199.442 49.1489 194.975 45.8776 193.156 41.3297H229.22C229.469 39.9733 229.634 38.617 229.634 37.1808C229.634 24.5744 218.55 14.3616 204.819 14.3616ZM193.156 33.0319C194.975 28.484 199.442 25.2127 204.819 25.2127C210.113 25.2127 214.662 28.484 216.481 33.0319H193.156Z" fill="white"/>
<path d="M247.141 52.9786C247.141 49.2286 243.915 46.1169 240.027 46.1169C236.057 46.1169 232.914 49.2286 232.914 52.9786C232.914 56.8084 236.057 59.8403 240.027 59.8403C243.915 59.8403 247.141 56.8084 247.141 52.9786Z" fill="white"/>
</svg>
