<svg width="31" height="30" viewBox="0 0 31 30" fill="none" xmlns="http://www.w3.org/2000/svg">
<path d="M27.0328 6.14457V23.3493C27.0328 24.7068 25.9324 25.8072 24.5749 25.8072H19.9664C19.627 25.8072 19.352 25.5322 19.352 25.1927V17.8192H22.2277C22.5197 17.8193 22.7714 17.6138 22.8298 17.3277L23.2723 15.1156C23.2905 15.0263 23.2681 14.9334 23.2112 14.8621C23.1541 14.7911 23.0685 14.7487 22.9773 14.747H19.352V10.753C19.352 10.5833 19.4896 10.4458 19.6592 10.4458H22.7315C23.071 10.4458 23.346 10.1707 23.346 9.83131V7.98794C23.346 7.64859 23.071 7.37348 22.7315 7.37348H19.6592C17.623 7.37348 15.9723 9.02409 15.9723 11.0602V14.747H14.4607C14.1214 14.747 13.8463 15.022 13.8463 15.3615V17.2048C13.8463 17.5442 14.1214 17.8192 14.4607 17.8192H15.9723V25.1927C15.9723 25.5322 15.6973 25.8072 15.3578 25.8072H7.36973C6.01227 25.8072 4.91183 24.7068 4.91183 23.3493V6.14457C4.91183 4.78714 6.01227 3.68674 7.36973 3.68674H24.5749C25.9324 3.68674 27.0328 4.78714 27.0328 6.14457Z" fill="white"/>
</svg>
