<svg width="31" height="30" viewBox="0 0 31 30" fill="none" xmlns="http://www.w3.org/2000/svg">
<path fill-rule="evenodd" clip-rule="evenodd" d="M23.2031 5.3335L24.9975 5.51783C27.1217 5.75793 28.7167 7.57101 28.6843 9.70843V19.7856C28.7167 21.923 27.1217 23.736 24.9975 23.9762L23.2769 24.1605C17.9084 24.7134 12.4972 24.7134 7.1286 24.1605L5.33435 23.9762C3.21012 23.736 1.61501 21.923 1.64751 19.7856V9.70843C1.61501 7.57101 3.21012 5.75793 5.33435 5.51783L7.05486 5.3335C12.4234 4.78051 17.8347 4.78051 23.2031 5.3335ZM14.0721 18.704L18.8527 15.5089H18.9264C19.184 15.3411 19.3395 15.0544 19.3395 14.747C19.3395 14.4395 19.184 14.1529 18.9264 13.985L14.1459 10.7899C13.8636 10.5991 13.4992 10.5795 13.1981 10.7391C12.8971 10.8986 12.7086 11.2111 12.708 11.5518V17.9422C12.7239 18.2592 12.9019 18.5459 13.1791 18.7008C13.4563 18.8556 13.7938 18.8569 14.0721 18.704Z" fill="white"/>
</svg>
