<svg width="31" height="31" viewBox="0 0 31 31" fill="none" xmlns="http://www.w3.org/2000/svg">
<path fill-rule="evenodd" clip-rule="evenodd" d="M26.3445 24.5416C26.3445 25.7709 25.4864 26.7997 24.3369 27.0608V27.1194H23.9329C23.8765 27.1231 23.8198 27.125 23.7625 27.125H18.9211C18.8925 27.125 18.8641 27.1231 18.8363 27.1194H14.1648C14.137 27.1231 14.1087 27.125 14.0799 27.125H5.68831C4.26229 27.125 3.10628 25.9684 3.10628 24.5416V6.45834C3.10628 5.03159 4.26229 3.875 5.68831 3.875H23.7625C25.1885 3.875 26.3445 5.03159 26.3445 6.45834V24.5416ZM19.8586 10.4548C19.9663 10.5251 20.0773 10.5899 20.1915 10.6491C20.9342 11.0203 21.6599 11.1333 22.0171 11.0944V13.9849C22.0171 13.9849 20.9974 13.9426 20.2405 13.7412C19.1856 13.4583 18.5094 13.0239 18.5094 13.0239C18.5094 13.0239 18.04 12.7128 18.0048 12.6916V18.6646C18.0048 18.9966 17.9171 19.8274 17.6542 20.52C17.4238 21.1122 17.0945 21.6608 16.6802 22.1422C16.6802 22.1422 16.0319 22.9479 14.8931 23.4885C13.9439 23.9394 13.0995 23.9642 12.7641 23.974C12.7367 23.9748 12.7127 23.9756 12.6923 23.9763C12.6923 23.9763 11.1331 24.0393 9.72684 23.0814L9.71979 23.0742V23.0814C9.24435 22.7489 8.82038 22.3479 8.46152 21.8914C8.01649 21.3224 7.74342 20.6476 7.67295 20.4498V20.4426C7.56089 20.1068 7.32588 19.2941 7.36111 18.5096C7.41713 17.1277 7.87979 16.2761 8.00241 16.0642C8.32463 15.4831 8.74555 14.9628 9.24623 14.5267C9.81762 14.0466 10.4821 13.6904 11.1977 13.4805C11.9133 13.2707 12.6646 13.2118 13.404 13.3075L13.4005 16.2722C13.1569 16.1927 12.9023 16.1522 12.6461 16.1524C11.2927 16.1524 10.1958 17.2586 10.1958 18.6248C10.1958 19.991 11.2927 21.0972 12.6461 21.0972C13.0675 21.0977 13.4818 20.9881 13.848 20.7793C14.1994 20.5792 14.4964 20.2955 14.7128 19.9533C14.9292 19.6112 15.0584 19.2209 15.089 18.817V18.8106C15.0908 18.8021 15.0908 18.7936 15.0908 18.7855C15.0911 18.779 15.0915 18.773 15.0919 18.7669C15.0928 18.7545 15.0936 18.7428 15.0936 18.7304C15.0999 18.5828 15.0999 18.4334 15.0999 18.2823V7.02322H18.0048C18.0001 7.02322 17.9699 7.30224 18.0432 7.73348H18.0396C18.1273 8.25302 18.3656 8.99507 19.0034 9.72653C19.2583 10.0028 19.5453 10.2473 19.8586 10.4548Z" fill="white"/>
</svg>
