<svg width="31" height="30" viewBox="0 0 31 30" fill="none" xmlns="http://www.w3.org/2000/svg">
<path d="M27.5682 7.94359C26.9341 8.78951 26.1675 9.52742 25.2981 10.1288C25.2981 10.3498 25.2981 10.5708 25.2981 10.804C25.3051 14.8169 23.702 18.6649 20.8486 21.4851C17.995 24.3051 14.1296 25.8618 10.1189 25.8059C7.80018 25.8136 5.51118 25.2842 3.43119 24.2591C3.31903 24.21 3.2467 24.0991 3.24711 23.9767V23.8416C3.24711 23.6654 3.38995 23.5225 3.56617 23.5225C5.84539 23.4473 8.04328 22.6572 9.84891 21.2636C7.7859 21.222 5.92973 19.9999 5.0755 18.1208C5.03235 18.0182 5.04578 17.9004 5.11094 17.8101C5.17611 17.7199 5.28359 17.6702 5.39454 17.6789C6.02153 17.7418 6.65479 17.6836 7.25973 17.5069C4.98234 17.0343 3.27113 15.1436 3.02624 12.8296C3.01754 12.7186 3.06728 12.6111 3.15751 12.5459C3.24773 12.4807 3.3654 12.4673 3.468 12.5104C4.07914 12.7801 4.73888 12.9221 5.40681 12.9278C3.41128 11.6181 2.54934 9.12696 3.30847 6.86326C3.38683 6.64329 3.57509 6.4808 3.80407 6.43548C4.03304 6.39018 4.26897 6.46872 4.42513 6.64228C7.11798 9.5082 10.818 11.216 14.745 11.4056C14.6444 11.0042 14.595 10.5917 14.5978 10.1779C14.6345 8.0082 15.9771 6.07537 17.9969 5.28432C20.0167 4.49326 22.3139 5.00053 23.8132 6.56863C24.8354 6.37393 25.8234 6.03065 26.746 5.54967C26.8136 5.50748 26.8994 5.50748 26.967 5.54967C27.0091 5.61729 27.0091 5.70304 26.967 5.77066C26.52 6.79402 25.765 7.65236 24.8072 8.22595C25.646 8.12868 26.47 7.93084 27.2615 7.63668C27.3281 7.59132 27.4157 7.59132 27.4824 7.63668C27.5381 7.66222 27.5799 7.71106 27.5964 7.7702C27.613 7.82933 27.6027 7.89276 27.5682 7.94359Z" fill="white"/>
</svg>
