<svg width="39" height="39" viewBox="0 0 39 39" fill="none" xmlns="http://www.w3.org/2000/svg">
<path fill-rule="evenodd" clip-rule="evenodd" d="M19.5001 2.92505C10.346 2.92505 2.92505 10.346 2.92505 19.5001C2.92505 28.6541 10.346 36.0751 19.5001 36.0751C28.6541 36.0751 36.0751 28.6541 36.0751 19.5001C36.0751 10.346 28.6541 2.92505 19.5001 2.92505ZM32.2444 17.6584H27.5113C27.4088 14.3384 26.6711 11.0688 25.3382 8.02643C29.0672 9.92585 31.6421 13.5171 32.2444 17.6584ZM19.4998 32.3918H20.3285C22.0044 31.3053 23.9383 27.272 24.2698 21.3418H14.7299C14.9878 27.3088 16.9952 31.342 18.671 32.3918H19.4998ZM14.8036 17.6582C15.1351 11.728 17.0688 7.69478 18.7447 6.6082H19.4999H20.3286C22.0045 7.65795 24.012 11.6912 24.2698 17.6582H14.8036ZM11.4891 17.6584C11.5917 14.3384 12.3294 11.0688 13.6622 8.02643C9.93335 9.92585 7.35832 13.5171 6.75602 17.6584H11.4891ZM6.75602 21.3417H11.4891C11.5917 24.6617 12.3294 27.9313 13.6622 30.9737C9.93335 29.0743 7.35832 25.4831 6.75602 21.3417ZM27.5113 21.3417C27.4088 24.6617 26.6711 27.9313 25.3382 30.9737C29.0672 29.0743 31.6421 25.4831 32.2444 21.3417H27.5113Z" fill="#6FDBD4"/>
</svg>
