<svg width="39" height="39" viewBox="0 0 39 39" fill="none" xmlns="http://www.w3.org/2000/svg">
<path d="M19.5688 21.735C20.791 21.735 21.7818 20.7442 21.7818 19.5221C21.7818 18.2999 20.791 17.3091 19.5688 17.3091C18.3466 17.3091 17.3558 18.2999 17.3558 19.5221C17.3558 20.7442 18.3466 21.735 19.5688 21.735Z" fill="#6FDBD4"/>
<path d="M19.4993 2.92505C15.0975 2.92505 10.8759 4.67367 7.76331 7.78624C4.65074 10.8988 2.90211 15.1204 2.90211 19.5222C2.90211 23.924 4.65074 28.1456 7.76331 31.2582C10.8759 34.3707 15.0975 36.1193 19.4993 36.1193C23.9011 36.1193 28.1227 34.3707 31.2352 31.2582C34.3478 28.1456 36.0964 23.924 36.0964 19.5222C36.0964 15.1204 34.3478 10.8988 31.2352 7.78624C28.1227 4.67367 23.9011 2.92505 19.4993 2.92505ZM30.2985 10.3385L24.8767 18.0838C25.266 19.4731 25.0901 20.9601 24.3875 22.2204C23.6849 23.4806 22.5123 24.4119 21.1258 24.8112C20.6191 24.9583 20.0933 25.0292 19.5657 25.0214C18.1058 25.0422 16.697 24.4851 15.6462 23.4716C14.5954 22.4581 13.9878 21.0703 13.9558 19.6107C13.9441 18.8842 14.0757 18.1625 14.3429 17.4867C14.6102 16.811 15.0079 16.1945 15.5134 15.6726C16.0189 15.1506 16.6224 14.7334 17.2892 14.4446C17.956 14.1559 18.6731 14.0013 19.3997 13.9898C19.9379 13.9874 20.4739 14.0581 20.993 14.2001L28.7383 8.77831C28.8488 8.68385 28.9767 8.61207 29.1148 8.56708C29.253 8.52207 29.3988 8.50472 29.5437 8.51602C29.6884 8.52733 29.8297 8.56706 29.9592 8.63295C30.0888 8.69883 30.204 8.78958 30.2985 8.90002C30.4699 9.10044 30.5641 9.3555 30.5641 9.61923C30.5641 9.88295 30.4699 10.138 30.2985 10.3385Z" fill="#6FDBD4"/>
</svg>
